<svg xmlns="http://www.w3.org/2000/svg" viewBox="0 0 800 600">
  <defs>
    <pattern id="dots" width="10" height="10" patternUnits="userSpaceOnUse">
      <circle cx="5" cy="5" r="1.6" fill="#0b1030" opacity=".45"/>
    </pattern>
  </defs>
  <!-- sky bands -->
  <rect width="800" height="600" fill="#1b2350"/>
  <rect y="170" width="800" height="200" fill="#2a3470"/>
  <rect y="290" width="800" height="120" fill="#3b4690"/>
  <rect width="800" height="600" fill="url(#dots)"/>
  <!-- moon behind clouds -->
  <circle cx="610" cy="120" r="58" fill="#f6e7a6" stroke="#0b0b12" stroke-width="6"/>
  <path d="M585 90a40 40 0 0 0 30 70a52 52 0 0 1-30-70z" fill="#e2c86a"/>
  <path d="M470 150c10-40 70-45 90-20c20-30 90-25 95 15c40-5 70 20 60 45H455c-25-5-20-40 15-40z" fill="#58629e" stroke="#0b0b12" stroke-width="7" stroke-linejoin="round"/>
  <path d="M40 90c10-30 60-35 80-15c25-25 85-15 85 20c30 0 45 20 35 38H45c-25 0-30-35-5-43z" fill="#4c5690" stroke="#0b0b12" stroke-width="5" stroke-linejoin="round"/>
  <!-- skyline -->
  <g stroke="#0b0b12" stroke-linejoin="round">
    <path d="M0 420V300h70v-40h50v160z" fill="#2b2f4a" stroke-width="7"/>
    <path d="M120 420V240h90v180z" fill="#353a5c" stroke-width="8"/>
    <!-- dome building -->
    <path d="M210 420V300h40v-30h120v30h40v120z" fill="#454b73" stroke-width="9"/>
    <path d="M270 270a40 40 0 0 1 80 0z" fill="#c9a24a" stroke-width="7"/>
    <path d="M310 230v-30" stroke-width="6"/>
    <path d="M300 200l10-18 10 18z" fill="#f4d35e" stroke-width="4"/>
    <path d="M410 420V200h70v220z" fill="#2f3453" stroke-width="8"/>
    <path d="M480 420V270h60v-30h40v180z" fill="#3a4065" stroke-width="7"/>
    <path d="M580 420V310h90v110z" fill="#2b2f4a" stroke-width="6"/>
    <path d="M670 420V230h80v190z" fill="#40466d" stroke-width="9"/>
    <path d="M750 420V330h50v90z" fill="#2b2f4a" stroke-width="6"/>
  </g>
  <!-- cel shadow sides -->
  <g fill="#1d2036" opacity=".75">
    <path d="M185 244h22v174h-22z"/><path d="M455 204h22v214h-22z"/><path d="M722 234h25v184h-25z"/><path d="M380 304h27v114h-27z"/>
  </g>
  <!-- lit windows -->
  <g fill="#ffd966" stroke="#0b0b12" stroke-width="2.5">
    <rect x="135" y="260" width="16" height="22"/><rect x="170" y="300" width="16" height="22"/><rect x="135" y="350" width="16" height="22"/>
    <rect x="228" y="320" width="18" height="24"/><rect x="300" y="330" width="20" height="26"/><rect x="372" y="320" width="18" height="24"/>
    <rect x="425" y="225" width="16" height="22"/><rect x="425" y="300" width="16" height="22"/><rect x="495" y="290" width="16" height="22"/>
    <rect x="600" y="330" width="16" height="22"/><rect x="635" y="370" width="16" height="22"/><rect x="690" y="255" width="16" height="22"/>
    <rect x="690" y="330" width="16" height="22"/><rect x="25" y="330" width="16" height="22"/>
  </g>
  <!-- street + reflections -->
  <rect y="418" width="800" height="182" fill="#141833" stroke="#0b0b12" stroke-width="8"/>
  <g fill="#ffd966" opacity=".5">
    <rect x="135" y="440" width="16" height="50"/><rect x="300" y="440" width="20" height="70"/><rect x="425" y="440" width="16" height="40"/><rect x="690" y="440" width="16" height="60"/>
  </g>
  <path d="M0 520h800" stroke="#3b4690" stroke-width="4" stroke-dasharray="60 40"/>
  <!-- rain -->
  <g stroke="#b9c6ff" stroke-width="3" stroke-linecap="round" opacity=".85">
    <path d="M40 20l-18 50"/><path d="M130 60l-18 50"/><path d="M220 10l-18 50"/><path d="M300 110l-18 50"/><path d="M390 40l-18 50"/>
    <path d="M480 200l-18 50"/><path d="M560 20l-18 50"/><path d="M700 60l-18 50"/><path d="M770 160l-18 50"/><path d="M90 200l-18 50"/>
    <path d="M250 330l-18 50"/><path d="M530 350l-18 50"/><path d="M640 250l-18 50"/><path d="M360 450l-18 50"/><path d="M110 470l-18 50"/>
    <path d="M600 470l-18 50"/><path d="M740 430l-18 50"/><path d="M460 520l-18 50"/><path d="M200 540l-18 50"/>
  </g>
</svg>
