<svg xmlns="http://www.w3.org/2000/svg" viewBox="0 0 64 64"><rect width="64" height="64" rx="15" fill="#FFE9B8"/><g transform="rotate(-4 18.5 17.5)"><rect x="7.5" y="9.5" width="22" height="22" rx="6" fill="#E04A8B"/><rect x="7.5" y="6.5" width="22" height="22" rx="6" fill="#FF5FA2"/><path d="M11.5 19.7 C14 13.3 17.3 16.1 18.5 17.5 S23 21.7 25.5 15.3" fill="none" stroke="#FFFFFF" stroke-width="3.4" stroke-linecap="round"/></g><g transform="rotate(3 45.5 17.5)"><rect x="34.5" y="9.5" width="22" height="22" rx="6" fill="#C9A45F"/><rect x="34.5" y="6.5" width="22" height="22" rx="6" fill="#E6C583"/></g><g transform="rotate(3 18.5 44.5)"><rect x="7.5" y="36.5" width="22" height="22" rx="6" fill="#E8D3A6"/><rect x="7.5" y="33.5" width="22" height="22" rx="6" fill="#FFFFFF"/></g><g transform="rotate(-3 45.5 44.5)"><rect x="34.5" y="36.5" width="22" height="22" rx="6" fill="#24132A"/><rect x="34.5" y="33.5" width="22" height="22" rx="6" fill="#3D2140"/></g></svg>